<svg width="272" height="90" viewBox="0 0 272 90" fill="none" xmlns="http://www.w3.org/2000/svg">
<g clip-path="url(#clip0_13_219)">
<path d="M271.745 21.4312C275.438 42.5935 217.828 70.3056 143.057 83.3269C68.2972 96.3481 4.69821 89.7422 1.01148 68.5687C-2.67526 47.4064 54.951 19.6999 129.711 6.68428C204.477 -6.34815 268.064 0.263314 271.745 21.4312Z" fill="white"/>
<path d="M201.378 52.8413L200.997 30.8386H207.934V58.5731H197.96L191.035 35.814H190.884L191.27 58.5731H184.373V30.8386H194.783L201.227 52.8413H201.378Z" fill="#132237"/>
<path d="M75.256 33.4383L71.418 58.8645H63.8484L69.0424 30.8386H81.5089L86.686 58.8645H79.1445L75.4129 33.4383H75.256Z" fill="#132237"/>
<path d="M107.938 52.2642L111.401 30.8386H122.831L123.436 58.8645H116.432L116.247 33.668H116.101L111.417 58.8645H104.307L99.6176 33.668H99.4663L99.2926 58.8645H92.2722L92.8941 30.8386H104.33L107.787 52.2642H107.938Z" fill="#132237"/>
<path d="M52.0486 50.9587C52.3232 51.6367 52.2391 52.5107 52.1103 53.0374C51.875 53.9675 51.2418 54.92 49.3816 54.92C47.6223 54.92 46.5578 53.9115 46.5578 52.3763V49.6644H39.0386L39.033 51.8328C39.033 58.0801 43.9524 59.9683 49.2248 59.9683C54.2954 59.9683 58.4696 58.2369 59.1308 53.5641C59.4725 51.1436 59.2148 49.558 59.1027 48.9585C57.9205 43.0922 47.2805 41.3385 46.4905 38.0608C46.3561 37.5005 46.3953 36.901 46.4625 36.5816C46.6586 35.6907 47.2693 34.7046 49.0231 34.7046C50.6591 34.7046 51.6284 35.7187 51.6284 37.2483C51.6284 37.7638 51.6284 38.9796 51.6284 38.9796H58.6153V37.013C58.6153 30.9058 53.1356 29.9533 49.1687 29.9533C44.1821 29.9533 40.1088 31.6006 39.3636 36.1614C39.1619 37.422 39.1339 38.5426 39.4252 39.949C40.6523 45.6696 50.6031 47.328 52.0486 50.9587Z" fill="#132237"/>
<path d="M143.18 50.9083C143.455 51.5807 143.365 52.4323 143.242 52.959C143.012 53.8891 142.385 54.8248 140.536 54.8248C138.805 54.8248 137.746 53.8163 137.746 52.3147L137.74 49.6253H130.299L130.288 51.7656C130.288 57.9512 135.163 59.817 140.379 59.817C145.394 59.817 149.529 58.1081 150.184 53.4801C150.526 51.0764 150.285 49.5132 150.162 48.9249C148.985 43.1146 138.457 41.3777 137.673 38.128C137.538 37.5677 137.578 36.9794 137.645 36.6769C137.846 35.7748 138.446 34.8167 140.183 34.8167C141.808 34.8167 142.755 35.8028 142.755 37.3268C142.755 37.8367 142.755 39.0413 142.755 39.0413H149.691V37.0915C149.691 31.0515 144.256 30.1046 140.323 30.1046C135.392 30.1046 131.353 31.7295 130.624 36.2622C130.423 37.5061 130.4 38.6043 130.691 40.005C131.896 45.6696 141.752 47.3168 143.18 50.9083Z" fill="#132237"/>
<path d="M166.718 54.6735C168.663 54.6735 169.268 53.3288 169.402 52.6396C169.458 52.3371 169.475 51.9337 169.469 51.5695V30.8274H176.557V50.9307C176.574 51.4462 176.524 52.5052 176.496 52.7685C175.997 58.0016 171.862 59.6993 166.713 59.6993C161.558 59.6993 157.417 58.0016 156.924 52.7685C156.902 52.5052 156.852 51.4406 156.863 50.9307V30.8274H163.945V51.5639C163.945 51.9281 163.956 52.3371 164.012 52.634C164.169 53.3232 164.757 54.6735 166.718 54.6735Z" fill="#132237"/>
<path d="M225.185 54.3765C227.213 54.3765 227.925 53.0935 228.054 52.3483C228.104 52.0289 228.121 51.6367 228.115 51.2837V47.216H225.241V43.1258H235.181V50.6506C235.175 51.1773 235.164 51.5639 235.08 52.4996C234.615 57.5982 230.188 59.4192 225.224 59.4192C220.249 59.4192 215.834 57.5982 215.358 52.4996C215.279 51.5639 215.268 51.1773 215.257 50.6506L215.262 38.8508C215.262 38.3521 215.324 37.4725 215.38 37.0018C216.002 31.7631 220.249 30.0766 225.224 30.0766C230.194 30.0766 234.548 31.7519 235.063 37.0018C235.153 37.8927 235.125 38.8508 235.125 38.8508V39.7865H228.059V38.2177C228.065 38.2233 228.048 37.5509 227.97 37.1531C227.852 36.5312 227.314 35.108 225.174 35.108C223.129 35.108 222.535 36.4527 222.384 37.1531C222.3 37.5229 222.266 38.0216 222.266 38.4754V51.2949C222.26 51.6479 222.283 52.0401 222.339 52.3595C222.451 53.0935 223.157 54.3765 225.185 54.3765Z" fill="#132237"/>
</g>
<defs>
<clipPath id="clip0_13_219">
<rect width="271.07" height="90" fill="white" transform="translate(0.843384)"/>
</clipPath>
</defs>
</svg>
