<svg width="70" height="90" viewBox="0 0 70 90" fill="none" xmlns="http://www.w3.org/2000/svg">
<g clip-path="url(#clip0_13_206)">
<path d="M0.26001 80.9488C0.462763 81.7396 1.14743 82.5479 2.08679 82.7504H4.92583L5.07066 82.8076V89.9716H6.8435V82.8076L7.00455 82.7504H9.8461C10.7959 82.5057 11.4659 81.7396 11.6651 80.9488V80.9313H0.26001V80.9488Z" fill="white"/>
<path d="M17.8064 89.9918H24.551C25.4893 89.8052 26.1867 88.9785 26.3822 88.1782H15.9752C16.1694 88.9787 16.8771 89.8052 17.8064 89.9918Z" fill="white"/>
<path d="M17.8064 86.317H24.551C25.4893 86.132 26.1867 85.305 26.3822 84.5037H15.9752C16.1694 85.3052 16.8771 86.132 17.8064 86.317Z" fill="white"/>
<path d="M17.8064 82.7409H24.551C25.4893 82.5538 26.1867 81.7276 26.3822 80.9268H15.9752C16.1694 81.7276 16.8771 82.5538 17.8064 82.7409Z" fill="white"/>
<path d="M33.1884 82.7236H39.4194C40.3587 82.4507 41.1475 81.7351 41.3398 80.9418H31.4418V86.289H39.543V88.1655L33.1884 88.1705C32.1926 88.4481 31.3482 89.1168 30.9269 90L31.4418 89.9905H41.2836V84.5112H33.1884V82.7236Z" fill="white"/>
<path d="M54.3929 89.9928C55.2776 89.6177 55.7535 88.969 55.9358 88.2099H48.0661L48.0711 80.9393L46.307 80.9443V89.9928H54.3929Z" fill="white"/>
<path d="M61.2661 82.7481H68.0128C68.95 82.5618 69.6469 81.7348 69.8434 80.9348H59.4358C59.6303 81.7351 60.3374 82.5618 61.2661 82.7481Z" fill="white"/>
<path d="M59.7069 84.5179V89.9893H61.4615V86.3465H67.8475V89.9893H69.6009V84.5274L59.7069 84.5179Z" fill="white"/>
<path d="M35.0552 63.0488L43.9134 13.2297C52.3569 13.2297 55.0201 14.1555 55.4047 17.9347C55.4047 17.9347 61.0688 15.8228 63.9256 11.5335C52.7776 6.36776 41.5765 6.13479 41.5765 6.13479L35.0405 14.0956L35.0552 14.0946L28.5191 6.13354C28.5191 6.13354 17.3178 6.36676 6.17133 11.5325C9.0256 15.8218 14.692 17.9337 14.692 17.9337C15.0787 14.1543 17.7388 13.2284 26.1255 13.2224L35.0552 63.0488Z" fill="white"/>
<path d="M35.0517 3.83533C44.0632 3.76642 54.3779 5.22939 64.9371 9.83154C66.3484 7.29138 66.7112 6.16875 66.7112 6.16875C55.1685 1.60205 44.3589 0.0392023 35.0504 0C25.7425 0.0392023 14.9334 1.6023 3.39221 6.16875C3.39221 6.16875 3.90709 7.55156 5.16505 9.83154C15.7222 5.22939 26.0387 3.76642 35.0504 3.83533H35.0517Z" fill="white"/>
</g>
<defs>
<clipPath id="clip0_13_206">
<rect width="69.5833" height="90" fill="white" transform="translate(0.26001)"/>
</clipPath>
</defs>
</svg>
